<svg width="488.152" height="488.152" xmlns="http://www.w3.org/2000/svg">

 <g>
  <title>background</title>
  <rect fill="none" id="canvas_background" height="402" width="582" y="-1" x="-1"/>
 </g>
 <g>
  <title>Layer 1</title>
  <g id="svg_1">
   <g id="svg_2">
    <path fill="#ffffff" id="svg_3" d="m176.854,269.311c0,-6.115 -4.96,-11.069 -11.08,-11.069l-38.665,0c-6.113,0 -11.074,4.954 -11.074,11.069l0,38.66c0,6.123 4.961,11.079 11.074,11.079l38.665,0c6.12,0 11.08,-4.956 11.08,-11.079l0,-38.66l0,0z"/>
    <path fill="#ffffff" id="svg_4" d="m273.483,269.311c0,-6.115 -4.961,-11.069 -11.069,-11.069l-38.67,0c-6.113,0 -11.074,4.954 -11.074,11.069l0,38.66c0,6.123 4.961,11.079 11.074,11.079l38.67,0c6.108,0 11.069,-4.956 11.069,-11.079l0,-38.66z"/>
    <path fill="#ffffff" id="svg_5" d="m370.117,269.311c0,-6.115 -4.961,-11.069 -11.074,-11.069l-38.665,0c-6.12,0 -11.08,4.954 -11.08,11.069l0,38.66c0,6.123 4.96,11.079 11.08,11.079l38.665,0c6.113,0 11.074,-4.956 11.074,-11.079l0,-38.66z"/>
    <path fill="#ffffff" id="svg_6" d="m176.854,365.95c0,-6.125 -4.96,-11.075 -11.08,-11.075l-38.665,0c-6.113,0 -11.074,4.95 -11.074,11.075l0,38.653c0,6.119 4.961,11.074 11.074,11.074l38.665,0c6.12,0 11.08,-4.956 11.08,-11.074l0,-38.653l0,0z"/>
    <path fill="#ffffff" id="svg_7" d="m273.483,365.95c0,-6.125 -4.961,-11.075 -11.069,-11.075l-38.67,0c-6.113,0 -11.074,4.95 -11.074,11.075l0,38.653c0,6.119 4.961,11.074 11.074,11.074l38.67,0c6.108,0 11.069,-4.956 11.069,-11.074l0,-38.653z"/>
    <path fill="#ffffff" id="svg_8" d="m370.117,365.95c0,-6.125 -4.961,-11.075 -11.069,-11.075l-38.67,0c-6.12,0 -11.08,4.95 -11.08,11.075l0,38.653c0,6.119 4.96,11.074 11.08,11.074l38.67,0c6.108,0 11.069,-4.956 11.069,-11.074l0,-38.653l0,0z"/>
    <path fill="#ffffff" id="svg_9" d="m439.254,54.354l0,59.05c0,26.69 -21.652,48.198 -48.338,48.198l-30.493,0c-26.688,0 -48.627,-21.508 -48.627,-48.198l0,-59.262l-137.44,0l0,59.262c0,26.69 -21.938,48.198 -48.622,48.198l-30.499,0c-26.685,0 -48.336,-21.508 -48.336,-48.198l0,-59.05c-23.323,0.703 -42.488,20.002 -42.488,43.723l0,346.061c0,24.167 19.588,44.015 43.755,44.015l389.82,0c24.131,0 43.755,-19.889 43.755,-44.015l0,-346.061c0,-23.721 -19.164,-43.02 -42.487,-43.723zm-14.163,368.234c0,10.444 -8.468,18.917 -18.916,18.917l-327.031,0c-10.448,0 -18.916,-8.473 -18.916,-18.917l0,-178.753c0,-10.448 8.467,-18.921 18.916,-18.921l327.03,0c10.448,0 18.916,8.473 18.916,18.921l0.001,178.753l0,0z"/>
    <path fill="#ffffff" id="svg_10" d="m95.128,129.945l30.162,0c9.155,0 16.578,-7.412 16.578,-16.567l0,-96.805c0,-9.156 -7.423,-16.573 -16.578,-16.573l-30.162,0c-9.156,0 -16.578,7.417 -16.578,16.573l0,96.805c0,9.155 7.422,16.567 16.578,16.567z"/>
    <path fill="#ffffff" id="svg_11" d="m360.035,129.945l30.162,0c9.149,0 16.572,-7.412 16.572,-16.567l0,-96.805c0.001,-9.156 -7.422,-16.573 -16.572,-16.573l-30.162,0c-9.154,0 -16.577,7.417 -16.577,16.573l0,96.805c0,9.155 7.423,16.567 16.577,16.567z"/>
   </g>
  </g>
  <g id="svg_12"/>
  <g id="svg_13"/>
  <g id="svg_14"/>
  <g id="svg_15"/>
  <g id="svg_16"/>
  <g id="svg_17"/>
  <g id="svg_18"/>
  <g id="svg_19"/>
  <g id="svg_20"/>
  <g id="svg_21"/>
  <g id="svg_22"/>
  <g id="svg_23"/>
  <g id="svg_24"/>
  <g id="svg_25"/>
  <g id="svg_26"/>
 </g>
</svg>